# xmcd
# 
# Track frame offsets:
#     150
#     18050
#     47750
#     65425
#     85075
#     115375
#     130975
#     148987
#     163550
#     178600
#     201825
#     227212
#     250000
#     265175
#     286825
#     307200
# 
# Disc length: 4328
# 
# Revision: 3
# Processed by: cddbd v1.5.2PL0 Copyright (c) Steve Scherf et al.
# Submitted via: BonkEnc v1.0.5
# 
DISCID=e510e610
DTITLE=Various Artist - I Got The Blues - Vol 1
DYEAR=1995
DGENRE=Blues
TTITLE0=Muddy Waters - I'm Your Hoochie Coochie Man
TTITLE1=Stevie Ray Vaughan and Double Trouble - Ain't Gone 'N' Give You Up On Love
TTITLE2=Johnny Winter - Stranger
TTITLE3=Johnny Winter - Evereybody's Blues
TTITLE4=The Allman Brothers Band - Gambler's Roll
TTITLE5=Fletwood Mac - Need Your Love Tonight
TTITLE6=Chet Atkins And Mark Knopfler - Poor Boy Blues
TTITLE7=Chicken Shack - I'd Rather Go Blind
TTITLE8=The Fabulous Thunderbirds - Tuff Enuff
TTITLE9=Michael Bloomfield - When I Need You
TTITLE10=The Gary Moore Band - Boogie My Way Back Home
TTITLE11=The Vaughan Brothers - Brothers
TTITLE12=Argent - Schoolgirl
TTITLE13=The Electric Flag - Texas
TTITLE14=Omar And The Howlers - Down In Mississipi
TTITLE15=Rick Derringer With Johnny and Edgar Winter - Skycraper Blues
EXTD=
EXTT0=
EXTT1=
EXTT2=
EXTT3=
EXTT4=
EXTT5=
EXTT6=
EXTT7=
EXTT8=
EXTT9=
EXTT10=
EXTT11=
EXTT12=
EXTT13=
EXTT14=
EXTT15=
PLAYORDER=
